<svg width="33" height="32" viewBox="0 0 33 32" fill="none" xmlns="http://www.w3.org/2000/svg">
<path fill-rule="evenodd" clip-rule="evenodd" d="M9.83203 7.9987C9.83203 7.29145 10.113 6.61318 10.6131 6.11308C11.1132 5.61298 11.7915 5.33203 12.4987 5.33203H27.1654C27.8726 5.33203 28.5509 5.61298 29.051 6.11308C29.5511 6.61318 29.832 7.29145 29.832 7.9987V17.332C29.832 18.0393 29.5511 18.7176 29.051 19.2176C28.5509 19.7177 27.8726 19.9987 27.1654 19.9987H24.4987V14.6654C24.4987 13.6045 24.0773 12.5871 23.3271 11.8369C22.577 11.0868 21.5596 10.6654 20.4987 10.6654H9.83203V7.9987Z" fill="#FE0000"/>
<path fill-rule="evenodd" clip-rule="evenodd" d="M3.16602 14.6667C3.16602 13.9594 3.44697 13.2811 3.94706 12.781C4.44716 12.281 5.12544 12 5.83268 12H20.4993C21.2066 12 21.8849 12.281 22.385 12.781C22.8851 13.2811 23.166 13.9594 23.166 14.6667V24C23.166 24.7072 22.8851 25.3855 22.385 25.8856C21.8849 26.3857 21.2066 26.6667 20.4993 26.6667H5.83268C5.12544 26.6667 4.44716 26.3857 3.94706 25.8856C3.44697 25.3855 3.16602 24.7072 3.16602 24V14.6667ZM13.166 16C12.282 16 11.4341 16.3512 10.809 16.9763C10.1839 17.6014 9.83268 18.4493 9.83268 19.3333C9.83268 20.2174 10.1839 21.0652 10.809 21.6904C11.4341 22.3155 12.282 22.6667 13.166 22.6667C14.0501 22.6667 14.8979 22.3155 15.523 21.6904C16.1482 21.0652 16.4993 20.2174 16.4993 19.3333C16.4993 18.4493 16.1482 17.6014 15.523 16.9763C14.8979 16.3512 14.0501 16 13.166 16Z" fill="#FE0000"/>
<path d="M14.4987 19.3333C14.4987 19.687 14.3582 20.0261 14.1082 20.2761C13.8581 20.5262 13.519 20.6667 13.1654 20.6667C12.8117 20.6667 12.4726 20.5262 12.2226 20.2761C11.9725 20.0261 11.832 19.687 11.832 19.3333C11.832 18.9797 11.9725 18.6406 12.2226 18.3905C12.4726 18.1405 12.8117 18 13.1654 18C13.519 18 13.8581 18.1405 14.1082 18.3905C14.3582 18.6406 14.4987 18.9797 14.4987 19.3333Z" fill="#FE0000"/>
</svg>
